<svg width="547" height="513" viewBox="0 0 547 513" fill="none" xmlns="http://www.w3.org/2000/svg">
<path d="M488.417 153.235C488.417 153.235 468.296 72.5375 346.487 21.6453C224.677 -29.2468 115.701 17.8884 90.8571 77.5229C66.0133 137.157 92.0498 169.36 75.4714 220.288C58.893 271.216 -26.2771 335.717 8.09625 413.933C42.4696 492.15 203.316 514.489 333.474 498.352C463.633 482.215 565.322 303.443 488.417 153.235Z" fill="white"/>
<path d="M171.495 88.9489H72.5016C69.3384 88.9489 66.3047 90.2055 64.068 92.4422C61.8313 94.679 60.5747 97.7126 60.5747 100.876V137.849C60.5747 141.012 61.8313 144.046 64.068 146.283C66.3047 148.52 69.3384 149.776 72.5016 149.776H170.899L183.422 166.474V100.876C183.422 97.7126 182.165 94.679 179.929 92.4422C177.692 90.2055 174.658 88.9489 171.495 88.9489Z" fill="#00204A"/>
<path d="M172.652 110L172.208 123.981H168.976L168.505 110H172.652ZM168.449 128.294C168.449 127.702 168.644 127.203 169.032 126.796C169.42 126.38 169.933 126.172 170.571 126.172C171.228 126.172 171.746 126.38 172.125 126.796C172.513 127.203 172.707 127.702 172.707 128.294C172.707 128.895 172.513 129.404 172.125 129.82C171.746 130.227 171.228 130.43 170.571 130.43C169.933 130.43 169.42 130.227 169.032 129.82C168.644 129.404 168.449 128.895 168.449 128.294Z" fill="#A9CEFF"/>
<path d="M161.043 110V130.194H157.007V110H161.043ZM166.064 110V113.37H152.083V110H166.064Z" fill="#A9CEFF"/>
<path d="M150.349 126.838V130.194H141.57V126.838H150.349ZM142.832 110V130.194H138.768V110H142.832ZM149.171 118.183V121.442H141.57V118.183H149.171ZM150.322 110V113.37H141.57V110H150.322Z" fill="#A9CEFF"/>
<path d="M129.642 121.387H125.495L125.481 118.447H129.004C129.559 118.447 130.012 118.354 130.363 118.169C130.724 117.975 130.987 117.693 131.154 117.323C131.33 116.944 131.417 116.486 131.417 115.95C131.417 115.331 131.334 114.836 131.168 114.466C131.011 114.087 130.756 113.81 130.405 113.634C130.063 113.458 129.61 113.37 129.046 113.37H126.882V130.194H122.818V110H129.046C130.044 110 130.941 110.111 131.736 110.333C132.532 110.555 133.207 110.897 133.761 111.359C134.316 111.812 134.741 112.386 135.037 113.079C135.333 113.763 135.481 114.577 135.481 115.52C135.481 116.352 135.315 117.12 134.982 117.822C134.649 118.525 134.127 119.103 133.415 119.556C132.703 120 131.783 120.245 130.655 120.291L129.642 121.387ZM129.49 130.194H124.344L125.967 126.838H129.49C130.035 126.838 130.47 126.722 130.793 126.491C131.117 126.26 131.353 125.95 131.501 125.562C131.658 125.164 131.736 124.711 131.736 124.202C131.736 123.629 131.667 123.13 131.528 122.705C131.399 122.279 131.182 121.956 130.876 121.734C130.571 121.503 130.16 121.387 129.642 121.387H126.147L126.175 118.447H130.419L131.376 119.612C132.458 119.575 133.322 119.783 133.969 120.236C134.617 120.68 135.079 121.262 135.356 121.983C135.643 122.695 135.786 123.454 135.786 124.258C135.786 125.552 135.541 126.644 135.051 127.531C134.57 128.41 133.863 129.075 132.929 129.528C131.995 129.972 130.849 130.194 129.49 130.194Z" fill="#A9CEFF"/>
<path d="M109.393 122.774L115.703 110H119.559V130.194H115.634V117.573L109.379 130.194H105.454V110H109.393V122.774Z" fill="#A9CEFF"/>
<path d="M96.3273 123.079H92.1941V119.709H96.3273C96.9098 119.709 97.3814 119.579 97.742 119.32C98.1026 119.061 98.3661 118.705 98.5325 118.252C98.699 117.79 98.7822 117.272 98.7822 116.699C98.7822 116.117 98.699 115.571 98.5325 115.062C98.3661 114.554 98.1026 114.147 97.742 113.842C97.3814 113.528 96.9098 113.37 96.3273 113.37H93.5117V130.194H89.4479V110H96.3273C97.6865 110 98.8515 110.287 99.8224 110.86C100.803 111.433 101.556 112.224 102.083 113.232C102.61 114.23 102.874 115.377 102.874 116.671C102.874 117.975 102.61 119.108 102.083 120.069C101.556 121.022 100.803 121.761 99.8224 122.288C98.8515 122.816 97.6865 123.079 96.3273 123.079Z" fill="#A9CEFF"/>
<path d="M86.1193 110V130.194H82.0693V113.37H76.0638V130.194H72V110H86.1193Z" fill="#A9CEFF"/>
<path d="M338.472 90.1417C338.472 90.1417 334.059 88.5792 333.057 92.527C332.056 96.4749 337.9 97.9419 338.615 97.9419C339.331 97.9419 340.464 96.9519 339.748 94.6739C339.033 92.3958 338.472 90.1417 338.472 90.1417Z" fill="#00204A" stroke="#00204A" stroke-width="1.5" stroke-linecap="round" stroke-linejoin="round"/>
<path d="M363.519 80.457C363.519 80.457 363.089 86.158 363.089 88.4361C363.089 90.7141 365.475 91.5729 366.667 91.5729C367.86 91.5729 368.385 94.2803 367.669 97.1308C366.954 99.9813 364.533 101.687 358.688 101.687C352.844 101.687 349.29 99.1226 349.147 97.2739C349.004 95.4252 350.423 87.4342 352.856 85.347C355.289 83.2598 363.519 80.457 363.519 80.457Z" fill="#00204A" stroke="#00204A" stroke-width="1.5" stroke-linecap="round" stroke-linejoin="round"/>
<path d="M342.182 97.9776V100.184C342.182 100.531 342.283 100.871 342.471 101.163C342.659 101.455 342.927 101.686 343.243 101.83C344.267 102.263 345.355 102.525 346.463 102.605C348.697 102.606 350.903 102.117 352.928 101.174C353.208 101.054 353.447 100.855 353.614 100.6C353.782 100.346 353.871 100.048 353.87 99.7428V97.4409C353.867 97.3006 353.83 97.163 353.762 97.0402C353.694 96.9175 353.597 96.8133 353.479 96.7368C353.362 96.6602 353.227 96.6138 353.087 96.6014C352.947 96.589 352.807 96.6111 352.677 96.6657L352.212 96.9042C352.212 96.9042 345.175 97.7987 342.182 97.9776Z" fill="#A9CEFF" stroke="#00204A" stroke-width="1.5" stroke-linecap="round" stroke-linejoin="round"/>
<path d="M339.056 79.312C338.277 82.4451 337.75 85.6359 337.482 88.8535C337.053 94.1252 337.482 98.9676 339.617 99.1107C341.082 99.1133 342.517 98.6997 343.756 97.918C343.756 97.918 348.741 98.4905 350.447 97.6437L352.164 96.7849L353.44 88.4361C353.44 88.4361 353.583 75.4715 351.162 74.6128C348.741 73.7541 339.056 79.312 339.056 79.312Z" fill="white" stroke="#00204A" stroke-width="1.5" stroke-linecap="round" stroke-linejoin="round"/>
<path d="M342.897 85.1562L341.764 88.1498C341.764 88.1498 339.474 88.7223 339.76 89.8554C340.047 90.9884 341.561 90.8215 341.561 90.8215" stroke="#00204A" stroke-width="1.5" stroke-linecap="round" stroke-linejoin="round"/>
<path d="M346.559 86.4562C346.332 87.0764 345.867 87.4819 345.545 87.3627C345.223 87.2434 345.127 86.6351 345.366 86.003C345.604 85.3709 346.058 84.9654 346.392 85.0966C346.726 85.2277 346.821 85.8718 346.559 86.4562Z" fill="#00204A"/>
<path d="M341.192 85.0131C340.953 85.6452 340.5 86.0507 340.166 85.9315C339.832 85.8122 339.76 85.192 339.987 84.5718C340.214 83.9516 340.679 83.5341 341.013 83.6534C341.347 83.7727 341.418 84.3929 341.192 85.0131Z" fill="#00204A"/>
<path d="M345.461 82.4488C345.461 82.4488 348.169 81.7331 348.455 84.3094" stroke="#00204A" stroke-width="1.5" stroke-linecap="round" stroke-linejoin="round"/>
<path d="M341.907 81.7331C341.907 81.7331 339.522 80.8863 338.77 82.9258" stroke="#00204A" stroke-width="1.5" stroke-linecap="round" stroke-linejoin="round"/>
<path d="M343.756 97.9777L347.596 96.4152" stroke="#00204A" stroke-width="1.5" stroke-linecap="round" stroke-linejoin="round"/>
<path d="M340.858 72.7522C340.858 72.7522 336.301 67.3374 332.878 71.321C329.455 75.3046 330.493 81.3038 336.588 81.5901C342.682 81.8763 349.552 75.889 349.552 75.889C349.552 75.889 348.837 83.725 350.542 86.4324C352.248 89.1398 353.536 90.9885 353.536 90.9885C353.536 90.9885 355.921 92.5509 359.953 89.426C363.984 86.3012 364.938 78.6918 362.087 73.599C359.237 68.5062 354.251 65.6199 348.264 67.6356C342.277 69.6512 340.858 72.7522 340.858 72.7522Z" fill="#00204A" stroke="#00204A" stroke-width="1.5" stroke-linecap="round" stroke-linejoin="round"/>
<path d="M350.733 90.8572C350.733 90.8572 355.862 86.158 355.862 88.8654C355.862 91.5729 353.476 93.994 351.592 93.4215" fill="white"/>
<path d="M350.733 90.8572C350.733 90.8572 355.862 86.158 355.862 88.8654C355.862 91.5729 353.476 93.994 351.592 93.4215" stroke="#00204A" stroke-width="1.5" stroke-linecap="round" stroke-linejoin="round"/>
<path d="M339.76 93.028C340.434 93.5132 341.244 93.7743 342.074 93.7743C342.905 93.7743 343.714 93.5132 344.388 93.028" stroke="#00204A" stroke-width="1.5" stroke-linecap="round" stroke-linejoin="round"/>
<path d="M366.227 102.034C375.335 92.3421 374.861 77.1026 365.17 67.9953C355.478 58.8879 340.239 59.3615 331.131 69.0531C322.024 78.7446 322.497 93.9842 332.189 103.092C341.881 112.199 357.12 111.725 366.227 102.034Z" stroke="#00204A" stroke-width="1.5" stroke-linecap="round" stroke-linejoin="round"/>
<path d="M512.551 281.434C526.239 278.234 534.74 264.544 531.54 250.856C528.34 237.168 514.649 228.667 500.962 231.867C487.274 235.067 478.773 248.758 481.973 262.445C485.173 276.133 498.864 284.635 512.551 281.434Z" stroke="#00204A" stroke-width="1.5" stroke-linecap="round" stroke-linejoin="round"/>
<path d="M515.444 264.155C515.444 265.83 514.947 267.467 514.017 268.86C513.086 270.253 511.763 271.338 510.216 271.979C508.669 272.62 506.966 272.787 505.324 272.461C503.681 272.134 502.172 271.327 500.988 270.143C499.803 268.959 498.997 267.45 498.67 265.807C498.343 264.165 498.511 262.462 499.152 260.915C499.793 259.367 500.878 258.045 502.271 257.114C503.663 256.184 505.301 255.687 506.976 255.687C509.221 255.687 511.375 256.579 512.963 258.167C514.551 259.756 515.444 261.909 515.444 264.155Z" fill="#A9CEFF" stroke="#00204A" stroke-width="1.5" stroke-linecap="round" stroke-linejoin="round"/>
<path d="M519.082 269.797C520.908 267.517 522.054 264.767 522.386 261.864C522.718 258.962 522.224 256.024 520.959 253.39C519.694 250.756 517.711 248.534 515.238 246.978C512.766 245.422 509.903 244.596 506.982 244.596C504.06 244.596 501.198 245.422 498.725 246.978C496.252 248.534 494.269 250.756 493.004 253.39C491.74 256.024 491.245 258.962 491.577 261.864C491.909 264.767 493.055 267.517 494.882 269.797H519.082Z" fill="white" stroke="#00204A" stroke-width="1.5" stroke-linecap="round" stroke-linejoin="round"/>
<path d="M513.023 265.408H500.547C499.817 265.408 499.094 265.264 498.42 264.985C497.746 264.705 497.133 264.296 496.617 263.78C496.101 263.264 495.691 262.651 495.412 261.977C495.133 261.302 494.989 260.58 494.989 259.85C494.987 259.119 495.13 258.396 495.409 257.721C495.688 257.046 496.097 256.433 496.613 255.916C497.13 255.4 497.743 254.99 498.418 254.712C499.093 254.433 499.817 254.29 500.547 254.292H513.023C513.753 254.29 514.476 254.433 515.151 254.712C515.826 254.99 516.44 255.4 516.956 255.916C517.473 256.433 517.882 257.046 518.161 257.721C518.439 258.396 518.582 259.119 518.58 259.85C518.58 261.324 517.995 262.737 516.953 263.78C515.91 264.822 514.497 265.408 513.023 265.408Z" fill="#A9CEFF" stroke="#00204A" stroke-width="1.5" stroke-linecap="round" stroke-linejoin="round"/>
<path d="M497.542 259.396C497.797 258.681 498.263 258.059 498.878 257.613C499.493 257.167 500.229 256.917 500.989 256.896C501.748 256.875 502.497 257.085 503.135 257.497C503.774 257.909 504.272 258.505 504.566 259.206" stroke="#00204A" stroke-width="1.5" stroke-linecap="round" stroke-linejoin="round"/>
<path d="M509.206 259.396C509.461 258.681 509.927 258.059 510.543 257.613C511.158 257.167 511.893 256.917 512.653 256.896C513.413 256.875 514.161 257.085 514.799 257.497C515.438 257.909 515.937 258.505 516.231 259.206" stroke="#00204A" stroke-width="1.5" stroke-linecap="round" stroke-linejoin="round"/>
<path d="M504.936 261.973C504.992 262.497 505.24 262.982 505.632 263.335C506.024 263.687 506.532 263.882 507.059 263.882C507.586 263.882 508.095 263.687 508.487 263.335C508.879 262.982 509.127 262.497 509.182 261.973H504.936Z" fill="white" stroke="#00204A" stroke-width="1.5" stroke-linecap="round" stroke-linejoin="round"/>
<path d="M527.025 262.855C526.812 262.855 526.601 262.813 526.404 262.732C526.207 262.65 526.028 262.531 525.878 262.38C525.727 262.229 525.608 262.051 525.526 261.854C525.445 261.657 525.403 261.446 525.403 261.233V257.548C525.403 257.335 525.445 257.124 525.526 256.927C525.608 256.73 525.727 256.551 525.878 256.401C526.028 256.25 526.207 256.131 526.404 256.049C526.601 255.968 526.812 255.926 527.025 255.926C527.238 255.926 527.449 255.968 527.645 256.049C527.842 256.131 528.021 256.25 528.172 256.401C528.322 256.551 528.442 256.73 528.523 256.927C528.605 257.124 528.647 257.335 528.647 257.548V261.197C528.652 261.413 528.613 261.628 528.534 261.829C528.454 262.03 528.336 262.213 528.185 262.368C528.033 262.522 527.853 262.645 527.654 262.728C527.455 262.812 527.241 262.855 527.025 262.855Z" fill="#00204A" stroke="#00204A" stroke-width="1.5" stroke-linecap="round" stroke-linejoin="round"/>
<path d="M486.497 262.855C486.284 262.855 486.073 262.813 485.876 262.732C485.68 262.65 485.501 262.531 485.35 262.38C485.2 262.229 485.08 262.051 484.999 261.854C484.917 261.657 484.875 261.446 484.875 261.233V257.548C484.875 257.335 484.917 257.124 484.999 256.927C485.08 256.73 485.2 256.551 485.35 256.401C485.501 256.25 485.68 256.131 485.876 256.049C486.073 255.968 486.284 255.926 486.497 255.926C486.71 255.926 486.921 255.968 487.118 256.049C487.315 256.131 487.494 256.25 487.644 256.401C487.795 256.551 487.914 256.73 487.996 256.927C488.077 257.124 488.119 257.335 488.119 257.548V261.197C488.124 261.413 488.086 261.628 488.006 261.829C487.927 262.03 487.808 262.213 487.657 262.368C487.506 262.522 487.325 262.645 487.126 262.728C486.927 262.812 486.713 262.855 486.497 262.855Z" fill="#00204A" stroke="#00204A" stroke-width="1.5" stroke-linecap="round" stroke-linejoin="round"/>
<path d="M489.491 257.774C489.04 257.771 488.61 257.59 488.292 257.271C487.975 256.951 487.797 256.519 487.797 256.069V253.397C487.792 250.502 488.656 247.673 490.278 245.275C490.394 245.071 490.552 244.892 490.74 244.752C490.929 244.611 491.144 244.511 491.373 244.458C491.602 244.404 491.84 244.399 492.071 244.442C492.303 244.485 492.523 244.575 492.717 244.707C492.912 244.839 493.077 245.01 493.203 245.209C493.328 245.408 493.411 245.631 493.446 245.863C493.482 246.096 493.468 246.333 493.408 246.56C493.347 246.787 493.24 247 493.093 247.183C491.853 249.018 491.192 251.183 491.196 253.397V256.069C491.196 256.521 491.017 256.955 490.697 257.275C490.377 257.595 489.943 257.774 489.491 257.774Z" fill="#00204A"/>
<path d="M522.433 247.088C522.293 247.088 522.155 247.054 522.032 246.987C521.909 246.92 521.805 246.824 521.729 246.706C520.636 245.076 519.157 243.741 517.424 242.819C515.691 241.897 513.757 241.418 511.794 241.423H502.324C500.361 241.418 498.427 241.897 496.694 242.819C494.961 243.741 493.482 245.076 492.389 246.706C492.261 246.894 492.063 247.024 491.839 247.066C491.616 247.109 491.384 247.061 491.196 246.933C491.102 246.87 491.021 246.79 490.958 246.696C490.895 246.601 490.852 246.495 490.831 246.384C490.81 246.273 490.811 246.159 490.835 246.048C490.859 245.938 490.905 245.833 490.97 245.74C492.22 243.881 493.909 242.358 495.887 241.305C497.865 240.253 500.071 239.703 502.312 239.705H511.782C514.026 239.704 516.235 240.255 518.215 241.309C520.195 242.364 521.885 243.89 523.136 245.752C523.201 245.845 523.246 245.951 523.269 246.062C523.292 246.173 523.292 246.288 523.27 246.399C523.248 246.51 523.203 246.616 523.139 246.71C523.075 246.803 522.993 246.883 522.898 246.945C522.76 247.036 522.598 247.086 522.433 247.088Z" fill="#00204A"/>
<path d="M524.627 257.774C524.175 257.774 523.741 257.595 523.421 257.275C523.101 256.955 522.922 256.521 522.922 256.069V253.397C522.926 251.183 522.266 249.018 521.025 247.183C520.883 246.998 520.78 246.786 520.723 246.56C520.666 246.334 520.656 246.098 520.694 245.868C520.731 245.638 520.816 245.418 520.942 245.221C521.068 245.025 521.233 244.857 521.427 244.727C521.62 244.597 521.839 244.508 522.068 244.466C522.298 244.423 522.533 244.429 522.761 244.481C522.988 244.534 523.202 244.632 523.39 244.771C523.578 244.909 523.735 245.085 523.852 245.287C525.47 247.682 526.33 250.507 526.321 253.397V256.069C526.321 256.519 526.143 256.951 525.826 257.271C525.508 257.59 525.078 257.771 524.627 257.774Z" fill="#00204A"/>
<path d="M489.706 265.265C488.813 265.265 487.958 264.91 487.327 264.279C486.697 263.649 486.342 262.793 486.342 261.901V256.558C486.342 255.666 486.697 254.81 487.327 254.18C487.958 253.549 488.813 253.194 489.706 253.194C490.598 253.194 491.453 253.549 492.084 254.18C492.715 254.81 493.069 255.666 493.069 256.558V261.901C493.069 262.793 492.715 263.649 492.084 264.279C491.453 264.91 490.598 265.265 489.706 265.265Z" fill="white" stroke="#00204A" stroke-width="1.5" stroke-linecap="round" stroke-linejoin="round"/>
<path d="M490.051 253.194H489.359V265.265H490.051V253.194Z" fill="#A9CEFF" stroke="#00204A" stroke-width="1.5" stroke-linecap="round" stroke-linejoin="round"/>
<path d="M527.371 256.558C527.371 254.7 525.865 253.194 524.007 253.194C522.15 253.194 520.644 254.7 520.644 256.558V261.901C520.644 263.759 522.15 265.265 524.007 265.265C525.865 265.265 527.371 263.759 527.371 261.901V256.558Z" fill="white" stroke="#00204A" stroke-width="1.5" stroke-linecap="round" stroke-linejoin="round"/>
<path d="M524.353 253.194H523.661V265.265H524.353V253.194Z" fill="#A9CEFF" stroke="#00204A" stroke-width="1.5" stroke-linecap="round" stroke-linejoin="round"/>
<path d="M507.035 252.097C508.22 252.092 509.385 251.793 510.426 251.227C511.467 250.661 512.351 249.845 512.999 248.853L514.466 246.575C512.14 245.288 509.522 244.623 506.865 244.644C504.207 244.664 501.599 245.371 499.295 246.694L501.489 249.437C502.158 250.265 503.003 250.933 503.962 251.394C504.921 251.854 505.971 252.094 507.035 252.097Z" fill="#A9CEFF" stroke="#00204A" stroke-width="1.5" stroke-linecap="round" stroke-linejoin="round"/>
<path d="M507.154 266.779C507.293 266.779 507.405 266.667 507.405 266.529C507.405 266.39 507.293 266.278 507.154 266.278C507.016 266.278 506.904 266.39 506.904 266.529C506.904 266.667 507.016 266.779 507.154 266.779Z" fill="#00204A"/>
<path d="M507.405 267.399C507.402 267.335 507.374 267.274 507.327 267.23C507.281 267.185 507.219 267.161 507.154 267.161C507.122 267.159 507.09 267.164 507.059 267.175C507.029 267.187 507.001 267.204 506.978 267.226C506.955 267.249 506.936 267.276 506.923 267.305C506.91 267.335 506.904 267.367 506.904 267.399C506.904 267.466 506.93 267.529 506.977 267.576C507.024 267.623 507.088 267.65 507.154 267.65C507.221 267.65 507.285 267.623 507.331 267.576C507.378 267.529 507.405 267.466 507.405 267.399Z" fill="#00204A"/>
<path d="M506.415 267.268C506.478 267.249 506.531 267.206 506.562 267.147C506.594 267.089 506.601 267.021 506.582 266.958C506.558 266.896 506.512 266.845 506.453 266.814C506.393 266.783 506.325 266.775 506.26 266.791C506.197 266.81 506.144 266.854 506.113 266.912C506.082 266.97 506.075 267.038 506.093 267.101C506.117 267.164 506.163 267.215 506.223 267.246C506.282 267.276 506.35 267.284 506.415 267.268Z" fill="#00204A"/>
<path d="M507.977 267.268C508.04 267.249 508.093 267.205 508.124 267.147C508.156 267.089 508.163 267.021 508.144 266.958C508.122 266.894 508.077 266.841 508.017 266.81C507.957 266.779 507.887 266.772 507.822 266.791C507.791 266.8 507.762 266.816 507.738 266.837C507.713 266.858 507.692 266.884 507.678 266.913C507.663 266.942 507.655 266.973 507.653 267.006C507.651 267.038 507.656 267.071 507.667 267.101C507.686 267.164 507.73 267.217 507.788 267.248C507.846 267.28 507.914 267.287 507.977 267.268Z" fill="#00204A"/>
<path d="M475.489 126.602H380.586V84.3213V73.11L391.809 84.3213H475.489V126.602Z" fill="#697F9B" stroke="#00204A" stroke-width="1.5" stroke-linecap="round" stroke-linejoin="round"/>
<path d="M475.489 187.847H380.586V145.578V134.367L391.809 145.578H475.489V187.847Z" fill="#697F9B" stroke="#00204A" stroke-width="1.5" stroke-linecap="round" stroke-linejoin="round"/>
<path d="M443.954 98.8721H466.293" stroke="#00204A" stroke-width="1.5" stroke-linecap="round" stroke-linejoin="round"/>
<path d="M412.693 98.8721H438.217" stroke="#00204A" stroke-width="1.5" stroke-linecap="round" stroke-linejoin="round"/>
<path d="M393.551 98.8721H408.221" stroke="#00204A" stroke-width="1.5" stroke-linecap="round" stroke-linejoin="round"/>
<path d="M433.744 105.897H466.293" stroke="#00204A" stroke-width="1.5" stroke-linecap="round" stroke-linejoin="round"/>
<path d="M393.551 105.897H428.008" stroke="#00204A" stroke-width="1.5" stroke-linecap="round" stroke-linejoin="round"/>
<path d="M459.912 112.91H466.293" stroke="#00204A" stroke-width="1.5" stroke-linecap="round" stroke-linejoin="round"/>
<path d="M424.179 112.91H454.807" stroke="#00204A" stroke-width="1.5" stroke-linecap="round" stroke-linejoin="round"/>
<path d="M393.551 112.91H419.074" stroke="#00204A" stroke-width="1.5" stroke-linecap="round" stroke-linejoin="round"/>
<path d="M443.954 158.209H466.293" stroke="#00204A" stroke-width="1.5" stroke-linecap="round" stroke-linejoin="round"/>
<path d="M412.693 158.209H438.217" stroke="#00204A" stroke-width="1.5" stroke-linecap="round" stroke-linejoin="round"/>
<path d="M393.551 158.209H408.221" stroke="#00204A" stroke-width="1.5" stroke-linecap="round" stroke-linejoin="round"/>
<path d="M433.744 165.233H466.293" stroke="#00204A" stroke-width="1.5" stroke-linecap="round" stroke-linejoin="round"/>
<path d="M393.551 165.233H428.008" stroke="#00204A" stroke-width="1.5" stroke-linecap="round" stroke-linejoin="round"/>
<path d="M459.912 172.247H466.293" stroke="#00204A" stroke-width="1.5" stroke-linecap="round" stroke-linejoin="round"/>
<path d="M424.179 172.247H454.807" stroke="#00204A" stroke-width="1.5" stroke-linecap="round" stroke-linejoin="round"/>
<path d="M393.551 172.247H419.074" stroke="#00204A" stroke-width="1.5" stroke-linecap="round" stroke-linejoin="round"/>
<path d="M380.586 360.083H475.489V257.834V246.623L464.265 257.834H380.586V360.083Z" fill="#A9CEFF" stroke="#00204A" stroke-width="1.5" stroke-linecap="round" stroke-linejoin="round"/>
<path d="M443.954 271.789H466.293" stroke="#00204A" stroke-width="1.5" stroke-linecap="round" stroke-linejoin="round"/>
<path d="M412.693 271.789H438.217" stroke="#00204A" stroke-width="1.5" stroke-linecap="round" stroke-linejoin="round"/>
<path d="M393.551 271.789H408.221" stroke="#00204A" stroke-width="1.5" stroke-linecap="round" stroke-linejoin="round"/>
<path d="M433.744 278.802H466.293" stroke="#00204A" stroke-width="1.5" stroke-linecap="round" stroke-linejoin="round"/>
<path d="M393.551 278.802H428.008" stroke="#00204A" stroke-width="1.5" stroke-linecap="round" stroke-linejoin="round"/>
<path d="M459.912 285.826H466.293" stroke="#00204A" stroke-width="1.5" stroke-linecap="round" stroke-linejoin="round"/>
<path d="M424.179 285.826H454.807" stroke="#00204A" stroke-width="1.5" stroke-linecap="round" stroke-linejoin="round"/>
<path d="M393.551 285.826H419.074" stroke="#00204A" stroke-width="1.5" stroke-linecap="round" stroke-linejoin="round"/>
<path d="M443.954 291.563H466.293" stroke="#00204A" stroke-width="1.5" stroke-linecap="round" stroke-linejoin="round"/>
<path d="M412.693 291.563H438.217" stroke="#00204A" stroke-width="1.5" stroke-linecap="round" stroke-linejoin="round"/>
<path d="M393.551 291.563H408.221" stroke="#00204A" stroke-width="1.5" stroke-linecap="round" stroke-linejoin="round"/>
<path d="M433.744 298.588H466.293" stroke="#00204A" stroke-width="1.5" stroke-linecap="round" stroke-linejoin="round"/>
<path d="M393.551 298.588H428.008" stroke="#00204A" stroke-width="1.5" stroke-linecap="round" stroke-linejoin="round"/>
<path d="M459.912 305.601H466.293" stroke="#00204A" stroke-width="1.5" stroke-linecap="round" stroke-linejoin="round"/>
<path d="M424.179 305.601H454.807" stroke="#00204A" stroke-width="1.5" stroke-linecap="round" stroke-linejoin="round"/>
<path d="M393.551 305.601H419.074" stroke="#00204A" stroke-width="1.5" stroke-linecap="round" stroke-linejoin="round"/>
<path d="M443.954 311.35H466.293" stroke="#00204A" stroke-width="1.5" stroke-linecap="round" stroke-linejoin="round"/>
<path d="M412.693 311.35H438.217" stroke="#00204A" stroke-width="1.5" stroke-linecap="round" stroke-linejoin="round"/>
<path d="M393.551 311.35H408.221" stroke="#00204A" stroke-width="1.5" stroke-linecap="round" stroke-linejoin="round"/>
<path d="M433.744 318.363H466.293" stroke="#00204A" stroke-width="1.5" stroke-linecap="round" stroke-linejoin="round"/>
<path d="M393.551 318.363H428.008" stroke="#00204A" stroke-width="1.5" stroke-linecap="round" stroke-linejoin="round"/>
<path d="M459.912 325.388H466.293" stroke="#00204A" stroke-width="1.5" stroke-linecap="round" stroke-linejoin="round"/>
<path d="M424.179 325.388H454.807" stroke="#00204A" stroke-width="1.5" stroke-linecap="round" stroke-linejoin="round"/>
<path d="M393.551 325.388H419.074" stroke="#00204A" stroke-width="1.5" stroke-linecap="round" stroke-linejoin="round"/>
<path d="M443.954 331.125H466.293" stroke="#00204A" stroke-width="1.5" stroke-linecap="round" stroke-linejoin="round"/>
<path d="M412.693 331.125H438.217" stroke="#00204A" stroke-width="1.5" stroke-linecap="round" stroke-linejoin="round"/>
<path d="M393.551 331.125H408.221" stroke="#00204A" stroke-width="1.5" stroke-linecap="round" stroke-linejoin="round"/>
<path d="M433.744 338.15H466.293" stroke="#00204A" stroke-width="1.5" stroke-linecap="round" stroke-linejoin="round"/>
<path d="M393.551 338.15H428.008" stroke="#00204A" stroke-width="1.5" stroke-linecap="round" stroke-linejoin="round"/>
<path d="M459.912 345.163H466.293" stroke="#00204A" stroke-width="1.5" stroke-linecap="round" stroke-linejoin="round"/>
<path d="M424.179 345.163H454.807" stroke="#00204A" stroke-width="1.5" stroke-linecap="round" stroke-linejoin="round"/>
<path d="M393.551 345.163H419.074" stroke="#00204A" stroke-width="1.5" stroke-linecap="round" stroke-linejoin="round"/>
<path d="M506.761 416.939C520.818 416.939 532.213 405.544 532.213 391.487C532.213 377.43 520.818 366.035 506.761 366.035C492.704 366.035 481.309 377.43 481.309 391.487C481.309 405.544 492.704 416.939 506.761 416.939Z" stroke="#00204A" stroke-width="1.5" stroke-linecap="round" stroke-linejoin="round"/>
<path d="M515.444 398.989C515.446 400.664 514.951 402.303 514.022 403.697C513.093 405.091 511.772 406.178 510.224 406.821C508.677 407.464 506.974 407.633 505.331 407.308C503.687 406.982 502.177 406.177 500.992 404.993C499.806 403.809 498.999 402.3 498.671 400.657C498.343 399.014 498.51 397.311 499.151 395.763C499.791 394.215 500.877 392.892 502.27 391.961C503.663 391.03 505.3 390.533 506.976 390.533C509.219 390.533 511.371 391.423 512.959 393.009C514.547 394.594 515.44 396.745 515.444 398.989Z" fill="#A9CEFF" stroke="#00204A" stroke-width="1.5" stroke-linecap="round" stroke-linejoin="round"/>
<path d="M519.082 404.63C520.908 402.35 522.054 399.601 522.386 396.698C522.718 393.795 522.224 390.858 520.959 388.224C519.694 385.59 517.711 383.367 515.238 381.812C512.766 380.256 509.903 379.43 506.982 379.43C504.06 379.43 501.198 380.256 498.725 381.812C496.252 383.367 494.269 385.59 493.004 388.224C491.74 390.858 491.245 393.795 491.577 396.698C491.909 399.601 493.055 402.35 494.882 404.63H519.082Z" fill="white" stroke="#00204A" stroke-width="1.5" stroke-linecap="round" stroke-linejoin="round"/>
<path d="M513.023 400.241H500.547C499.817 400.241 499.094 400.098 498.42 399.818C497.746 399.539 497.133 399.13 496.617 398.613C496.101 398.097 495.691 397.485 495.412 396.81C495.133 396.136 494.989 395.413 494.989 394.683C494.989 393.954 495.133 393.231 495.412 392.556C495.691 391.882 496.101 391.269 496.617 390.753C497.133 390.237 497.746 389.828 498.42 389.549C499.094 389.269 499.817 389.125 500.547 389.125H513.023C513.752 389.125 514.475 389.269 515.149 389.549C515.824 389.828 516.436 390.237 516.953 390.753C517.469 391.269 517.878 391.882 518.157 392.556C518.437 393.231 518.58 393.954 518.58 394.683C518.58 396.157 517.995 397.571 516.953 398.613C515.91 399.656 514.497 400.241 513.023 400.241Z" fill="#A9CEFF" stroke="#00204A" stroke-width="1.5" stroke-linecap="round" stroke-linejoin="round"/>
<path d="M497.542 394.23C497.797 393.515 498.263 392.893 498.878 392.447C499.493 392 500.229 391.751 500.989 391.73C501.748 391.709 502.497 391.919 503.135 392.331C503.774 392.743 504.272 393.339 504.566 394.039" stroke="#00204A" stroke-width="1.5" stroke-linecap="round" stroke-linejoin="round"/>
<path d="M509.206 394.23C509.461 393.515 509.927 392.893 510.543 392.447C511.158 392 511.893 391.751 512.653 391.73C513.413 391.709 514.161 391.919 514.799 392.331C515.438 392.743 515.937 393.339 516.231 394.039" stroke="#00204A" stroke-width="1.5" stroke-linecap="round" stroke-linejoin="round"/>
<path d="M504.936 396.806C504.992 397.331 505.24 397.816 505.632 398.168C506.024 398.521 506.532 398.716 507.059 398.716C507.586 398.716 508.095 398.521 508.487 398.168C508.879 397.816 509.127 397.331 509.182 396.806H504.936Z" fill="white" stroke="#00204A" stroke-width="1.5" stroke-linecap="round" stroke-linejoin="round"/>
<path d="M527.025 397.689C526.595 397.689 526.182 397.518 525.878 397.214C525.574 396.91 525.403 396.497 525.403 396.067V392.393C525.403 391.963 525.574 391.551 525.878 391.246C526.182 390.942 526.595 390.771 527.025 390.771C527.455 390.771 527.868 390.942 528.172 391.246C528.476 391.551 528.647 391.963 528.647 392.393V396.079C528.644 396.507 528.471 396.916 528.168 397.218C527.864 397.52 527.453 397.689 527.025 397.689Z" fill="#00204A" stroke="#00204A" stroke-width="1.5" stroke-linecap="round" stroke-linejoin="round"/>
<path d="M486.497 397.689C486.067 397.689 485.654 397.518 485.35 397.214C485.046 396.91 484.875 396.497 484.875 396.067V392.393C484.875 391.963 485.046 391.551 485.35 391.246C485.654 390.942 486.067 390.771 486.497 390.771C486.927 390.771 487.34 390.942 487.644 391.246C487.948 391.551 488.119 391.963 488.119 392.393V396.079C488.116 396.507 487.944 396.916 487.64 397.218C487.336 397.52 486.925 397.689 486.497 397.689Z" fill="#00204A" stroke="#00204A" stroke-width="1.5" stroke-linecap="round" stroke-linejoin="round"/>
<path d="M489.491 392.62C489.04 392.617 488.61 392.436 488.292 392.116C487.975 391.797 487.797 391.365 487.797 390.915V388.231C487.794 385.336 488.658 382.507 490.278 380.109C490.546 379.773 490.93 379.551 491.355 379.487C491.779 379.423 492.212 379.521 492.568 379.762C492.923 380.002 493.174 380.368 493.272 380.787C493.369 381.205 493.305 381.644 493.093 382.017C491.853 383.852 491.192 386.016 491.196 388.231V390.915C491.196 391.367 491.017 391.801 490.697 392.121C490.377 392.44 489.943 392.62 489.491 392.62Z" fill="#00204A"/>
<path d="M522.433 381.922C522.294 381.921 522.158 381.888 522.036 381.823C521.913 381.759 521.808 381.666 521.729 381.552C520.637 379.919 519.159 378.582 517.426 377.658C515.693 376.734 513.758 376.253 511.794 376.256H502.324C500.362 376.258 498.431 376.74 496.699 377.661C494.967 378.582 493.487 379.914 492.389 381.54C492.326 381.632 492.246 381.712 492.153 381.773C492.06 381.834 491.955 381.877 491.845 381.898C491.736 381.919 491.623 381.918 491.514 381.896C491.404 381.873 491.301 381.829 491.208 381.767C491.116 381.704 491.037 381.624 490.975 381.53C490.914 381.437 490.871 381.333 490.85 381.223C490.829 381.114 490.83 381.001 490.853 380.891C490.875 380.782 490.919 380.678 490.982 380.586C492.232 378.727 493.921 377.204 495.899 376.151C497.877 375.099 500.083 374.549 502.324 374.551H511.794C514.037 374.552 516.246 375.103 518.226 376.158C520.205 377.212 521.896 378.737 523.148 380.598C523.213 380.691 523.258 380.797 523.281 380.908C523.304 381.019 523.304 381.133 523.282 381.245C523.259 381.356 523.215 381.462 523.151 381.555C523.087 381.649 523.005 381.729 522.91 381.79C522.767 381.88 522.601 381.926 522.433 381.922Z" fill="#00204A"/>
<path d="M524.627 392.62C524.175 392.62 523.741 392.44 523.421 392.12C523.102 391.801 522.922 391.367 522.922 390.915V388.231C522.925 386.02 522.264 383.86 521.025 382.029C520.895 381.843 520.803 381.634 520.755 381.413C520.707 381.191 520.703 380.962 520.744 380.74C520.785 380.517 520.87 380.304 520.995 380.115C521.119 379.925 521.279 379.762 521.467 379.636C521.655 379.509 521.866 379.421 522.088 379.376C522.311 379.332 522.539 379.333 522.761 379.378C522.983 379.423 523.194 379.512 523.382 379.639C523.569 379.767 523.729 379.931 523.852 380.121C525.469 382.516 526.329 385.341 526.321 388.231V390.915C526.321 391.365 526.143 391.797 525.826 392.116C525.508 392.436 525.078 392.617 524.627 392.62Z" fill="#00204A"/>
<path d="M489.706 400.11C488.813 400.11 487.958 399.756 487.327 399.125C486.697 398.494 486.342 397.639 486.342 396.747V391.392C486.342 390.5 486.697 389.644 487.327 389.013C487.958 388.383 488.813 388.028 489.706 388.028C490.598 388.028 491.453 388.383 492.084 389.013C492.715 389.644 493.069 390.5 493.069 391.392V396.747C493.066 397.638 492.71 398.492 492.08 399.122C491.45 399.752 490.597 400.107 489.706 400.11Z" fill="white" stroke="#00204A" stroke-width="1.5" stroke-linecap="round" stroke-linejoin="round"/>
<path d="M490.051 388.028H489.359V400.098H490.051V388.028Z" fill="#A9CEFF" stroke="#00204A" stroke-width="1.5" stroke-linecap="round" stroke-linejoin="round"/>
<path d="M527.371 391.392C527.371 389.534 525.865 388.028 524.007 388.028C522.15 388.028 520.644 389.534 520.644 391.392V396.735C520.644 398.592 522.15 400.098 524.007 400.098C525.865 400.098 527.371 398.592 527.371 396.735V391.392Z" fill="white" stroke="#00204A" stroke-width="1.5" stroke-linecap="round" stroke-linejoin="round"/>
<path d="M524.353 388.028H523.661V400.098H524.353V388.028Z" fill="#A9CEFF" stroke="#00204A" stroke-width="1.5" stroke-linecap="round" stroke-linejoin="round"/>
<path d="M507.035 386.931C508.22 386.926 509.385 386.627 510.426 386.061C511.467 385.495 512.351 384.679 512.999 383.687L514.466 381.421C512.14 380.137 509.523 379.473 506.866 379.492C504.21 379.511 501.602 380.212 499.295 381.528L501.489 384.271C502.158 385.099 503.003 385.767 503.962 386.227C504.921 386.687 505.971 386.928 507.035 386.931Z" fill="#A9CEFF" stroke="#00204A" stroke-width="1.5" stroke-linecap="round" stroke-linejoin="round"/>
<path d="M507.154 401.613C507.293 401.613 507.405 401.501 507.405 401.362C507.405 401.224 507.293 401.112 507.154 401.112C507.016 401.112 506.904 401.224 506.904 401.362C506.904 401.501 507.016 401.613 507.154 401.613Z" fill="#00204A"/>
<path d="M507.154 402.496C507.293 402.496 507.405 402.383 507.405 402.245C507.405 402.107 507.293 401.995 507.154 401.995C507.016 401.995 506.904 402.107 506.904 402.245C506.904 402.383 507.016 402.496 507.154 402.496Z" fill="#00204A"/>
<path d="M506.415 402.102C506.478 402.083 506.531 402.039 506.562 401.981C506.594 401.923 506.601 401.855 506.582 401.792C506.558 401.73 506.512 401.678 506.453 401.648C506.393 401.617 506.325 401.609 506.26 401.625C506.199 401.647 506.148 401.69 506.117 401.748C506.086 401.805 506.077 401.872 506.093 401.935C506.103 401.968 506.119 401.998 506.14 402.024C506.162 402.05 506.188 402.072 506.218 402.088C506.248 402.103 506.281 402.112 506.315 402.115C506.349 402.117 506.383 402.113 506.415 402.102Z" fill="#00204A"/>
<path d="M507.977 402.102C508.04 402.083 508.093 402.039 508.124 401.981C508.156 401.923 508.163 401.855 508.144 401.792C508.122 401.728 508.077 401.675 508.017 401.644C507.957 401.613 507.887 401.606 507.822 401.625C507.791 401.634 507.762 401.65 507.738 401.671C507.713 401.692 507.692 401.718 507.678 401.747C507.663 401.776 507.655 401.807 507.653 401.84C507.651 401.872 507.656 401.905 507.667 401.935C507.675 401.967 507.69 401.997 507.71 402.023C507.731 402.05 507.756 402.071 507.785 402.087C507.815 402.103 507.847 402.112 507.88 402.115C507.913 402.117 507.946 402.113 507.977 402.102Z" fill="#00204A"/>
<path d="M380.586 453.018H475.489V392.668V381.456L464.265 392.668H380.586V453.018Z" fill="#A9CEFF" stroke="#00204A" stroke-width="1.5" stroke-linecap="round" stroke-linejoin="round"/>
<path d="M443.954 406.622H466.293" stroke="#00204A" stroke-width="1.5" stroke-linecap="round" stroke-linejoin="round"/>
<path d="M412.693 406.622H438.217" stroke="#00204A" stroke-width="1.5" stroke-linecap="round" stroke-linejoin="round"/>
<path d="M393.551 406.622H408.221" stroke="#00204A" stroke-width="1.5" stroke-linecap="round" stroke-linejoin="round"/>
<path d="M433.744 413.647H466.293" stroke="#00204A" stroke-width="1.5" stroke-linecap="round" stroke-linejoin="round"/>
<path d="M393.551 413.647H428.008" stroke="#00204A" stroke-width="1.5" stroke-linecap="round" stroke-linejoin="round"/>
<path d="M459.912 420.66H466.293" stroke="#00204A" stroke-width="1.5" stroke-linecap="round" stroke-linejoin="round"/>
<path d="M424.179 420.66H454.807" stroke="#00204A" stroke-width="1.5" stroke-linecap="round" stroke-linejoin="round"/>
<path d="M393.551 420.66H419.074" stroke="#00204A" stroke-width="1.5" stroke-linecap="round" stroke-linejoin="round"/>
<path d="M443.954 426.409H466.293" stroke="#00204A" stroke-width="1.5" stroke-linecap="round" stroke-linejoin="round"/>
<path d="M412.693 426.409H438.217" stroke="#00204A" stroke-width="1.5" stroke-linecap="round" stroke-linejoin="round"/>
<path d="M393.551 426.409H408.221" stroke="#00204A" stroke-width="1.5" stroke-linecap="round" stroke-linejoin="round"/>
<path d="M433.744 433.422H466.293" stroke="#00204A" stroke-width="1.5" stroke-linecap="round" stroke-linejoin="round"/>
<path d="M393.551 433.422H428.008" stroke="#00204A" stroke-width="1.5" stroke-linecap="round" stroke-linejoin="round"/>
<path d="M459.912 440.435H466.293" stroke="#00204A" stroke-width="1.5" stroke-linecap="round" stroke-linejoin="round"/>
<path d="M424.179 440.435H454.807" stroke="#00204A" stroke-width="1.5" stroke-linecap="round" stroke-linejoin="round"/>
<path d="M393.551 440.435H419.074" stroke="#00204A" stroke-width="1.5" stroke-linecap="round" stroke-linejoin="round"/>
<path d="M523.339 28.1217H474.105C473.589 30.8484 472.138 33.3098 470.002 35.0819C467.867 36.854 465.18 37.8259 462.405 37.8302H391.917C389.142 37.8259 386.455 36.854 384.319 35.0819C382.183 33.3098 380.733 30.8484 380.216 28.1217H331.042C326.93 28.1217 322.986 29.7553 320.078 32.663C317.17 35.5708 315.537 39.5145 315.537 43.6267V459.876C315.537 463.988 317.17 467.932 320.078 470.84C322.986 473.747 326.93 475.381 331.042 475.381H523.339C527.452 475.381 531.395 473.747 534.303 470.84C537.211 467.932 538.844 463.988 538.844 459.876V43.6267C538.844 39.5145 537.211 35.5708 534.303 32.663C531.395 29.7553 527.452 28.1217 523.339 28.1217Z" stroke="#00204A" stroke-width="1.5" stroke-linecap="round" stroke-linejoin="round"/>
<path d="M538.844 56.2096V43.6386C538.844 39.5264 537.211 35.5827 534.303 32.6749C531.395 29.7672 527.452 28.1336 523.339 28.1336H474.105C473.589 30.8603 472.138 33.3217 470.002 35.0938C467.867 36.8659 465.18 37.8378 462.405 37.8421H391.917C389.14 37.8373 386.452 36.8637 384.316 35.0892C382.18 33.3148 380.73 30.8506 380.216 28.1217H331.042C326.93 28.1217 322.986 29.7553 320.078 32.663C317.17 35.5708 315.537 39.5145 315.537 43.6267V56.2096H538.844Z" stroke="#00204A" stroke-width="1.5" stroke-linecap="round" stroke-linejoin="round"/>
<path d="M335.992 39.3569C335.992 42.4101 332.557 43.5074 332.545 45.8332V45.9882H335.872V47.0259H331.435V46.1552C331.435 42.9349 334.894 42.2432 334.894 39.3569C334.894 38.3073 334.548 37.7586 333.702 37.7586C332.855 37.7586 332.509 38.355 332.509 39.2495V40.144H331.459V39.3569C331.459 37.8064 332.163 36.7806 333.725 36.7806C335.288 36.7806 335.992 37.8064 335.992 39.3569Z" fill="#00204A"/>
<path d="M341.526 39.3569V39.6193C341.577 40.0475 341.488 40.4807 341.273 40.8546C341.058 41.2284 340.728 41.523 340.333 41.6945C340.733 41.8672 341.066 42.1655 341.281 42.5443C341.496 42.9231 341.582 43.3617 341.526 43.7937V44.5689C341.526 46.1194 340.798 47.1332 339.247 47.1332C337.697 47.1332 336.969 46.1194 336.969 44.5689V43.8772H338.031V44.6405C338.031 45.5589 338.401 46.1075 339.224 46.1075C340.047 46.1075 340.416 45.5708 340.416 44.5451V43.7698C340.416 42.768 339.987 42.2909 339.14 42.2551H338.472V41.2532H339.14C339.315 41.2558 339.489 41.2197 339.649 41.1475C339.808 41.0753 339.95 40.9688 340.064 40.8356C340.178 40.7024 340.261 40.5457 340.308 40.3767C340.354 40.2077 340.363 40.0305 340.333 39.8578V39.3569C340.333 38.3192 339.963 37.7825 339.14 37.7825C338.317 37.7825 337.947 38.3431 337.947 39.2614V39.7862H336.886V39.3569C336.886 37.8064 337.613 36.8045 339.164 36.8045C340.714 36.8045 341.526 37.7944 341.526 39.3569Z" fill="#00204A"/>
<path d="M343.708 40.1083V41.5157H342.623V40.1083H343.708ZM343.708 45.6185V47.0259H342.623V45.6185H343.708Z" fill="#00204A"/>
<path d="M345.998 41.0147C346.146 40.7496 346.365 40.5311 346.631 40.3836C346.896 40.2362 347.198 40.1656 347.501 40.1798C348.801 40.1798 349.385 41.134 349.385 42.5652V44.5451C349.385 46.0956 348.646 47.1093 347.095 47.1093C345.545 47.1093 344.829 46.0956 344.829 44.5451V43.8652H345.879V44.6166C345.879 45.535 346.261 46.0836 347.072 46.0836C347.883 46.0836 348.264 45.535 348.264 44.6166V42.6725C348.264 41.7542 347.895 41.2055 347.072 41.2055C346.92 41.1905 346.768 41.2074 346.623 41.2552C346.479 41.3029 346.346 41.3805 346.234 41.4828C346.121 41.5851 346.032 41.7099 345.97 41.8492C345.909 41.9884 345.878 42.1388 345.879 42.2909V42.5175H344.817L345.092 36.8999H349.087V37.9137H346.105L345.998 41.0147Z" fill="#00204A"/>
<path d="M355.003 39.3568V39.5357H353.977V39.2733C353.977 38.3669 353.595 37.8302 352.784 37.8302C351.973 37.8302 351.592 38.3788 351.592 39.4641V41.7422C351.708 41.4077 351.931 41.1205 352.226 40.9245C352.521 40.7285 352.872 40.6345 353.226 40.6568C354.526 40.6568 355.11 41.5871 355.11 43.0422V44.5689C355.11 46.1194 354.347 47.1331 352.796 47.1331C351.246 47.1331 350.399 46.1074 350.399 44.5569V39.3568C350.399 37.7467 351.115 36.7448 352.725 36.7448C354.335 36.7448 355.003 37.7825 355.003 39.3568ZM351.52 43.1376V44.6524C351.52 45.5707 351.902 46.1194 352.713 46.1194C353.524 46.1194 353.906 45.5707 353.906 44.6524V43.1138C353.906 42.2073 353.512 41.6587 352.713 41.6587C351.914 41.6587 351.52 42.2073 351.52 43.1138V43.1376Z" fill="#00204A"/>
<path d="M480.009 39.7743H477.146V46.9185H480.009V39.7743Z" fill="#00204A"/>
<path d="M483.825 38.3431H480.963V46.9185H483.825V38.3431Z" fill="#00204A"/>
<path d="M487.63 37.3293H484.768V46.9185H487.63V37.3293Z" fill="#00204A"/>
<path d="M491.447 35.5521H488.584V46.9185H491.447V35.5521Z" fill="#00204A"/>
<path d="M526.81 46.7158H509.659V36.244H526.81V46.7158ZM510.613 45.7736H525.856V37.1981H510.613V45.7736Z" fill="#00204A"/>
<path d="M521.097 38.2357H512.045V44.7358H521.097V38.2357Z" fill="#00204A"/>
<path d="M528.373 40.2513H526.214V42.7202H528.373V40.2513Z" fill="#00204A"/>
<path d="M503.374 44.4377C503.261 44.4397 503.149 44.4109 503.052 44.3542C499.557 42.2789 497.255 44.1992 497.16 44.2827C497.097 44.3457 497.023 44.3953 496.941 44.4283C496.859 44.4613 496.771 44.4769 496.682 44.4744C496.594 44.4718 496.507 44.451 496.427 44.4132C496.346 44.3755 496.275 44.3217 496.217 44.2551C496.158 44.1885 496.114 44.1106 496.087 44.0263C496.06 43.9419 496.051 43.853 496.06 43.7649C496.069 43.6768 496.096 43.5915 496.14 43.5144C496.183 43.4373 496.242 43.3699 496.313 43.3166C496.432 43.2092 499.39 40.6807 503.708 43.245C503.85 43.336 503.952 43.4787 503.992 43.6431C504.032 43.8076 504.007 43.9812 503.922 44.1276C503.866 44.2228 503.786 44.3015 503.689 44.3559C503.593 44.4103 503.484 44.4385 503.374 44.4377Z" fill="#00204A"/>
<path d="M504.662 42.2909C504.548 42.2887 504.437 42.2558 504.34 42.1955C499.295 39.2018 495.895 42.1001 495.86 42.1239C495.797 42.1788 495.724 42.2207 495.645 42.2474C495.566 42.274 495.483 42.2849 495.4 42.2794C495.317 42.2738 495.236 42.252 495.161 42.2151C495.087 42.1782 495.02 42.1269 494.965 42.0643C494.91 42.0016 494.868 41.9288 494.842 41.85C494.815 41.7711 494.804 41.6878 494.81 41.6047C494.815 41.5216 494.837 41.4405 494.874 41.3658C494.911 41.2912 494.962 41.2246 495.025 41.1698C495.025 41.1698 499.152 37.5917 504.996 41.0982C505.141 41.1871 505.245 41.3298 505.285 41.4952C505.325 41.6606 505.298 41.8352 505.21 41.9808C505.153 42.0752 505.073 42.1532 504.977 42.2075C504.881 42.2618 504.772 42.2906 504.662 42.2909Z" fill="#00204A"/>
<path d="M505.842 39.7981C505.725 39.7958 505.61 39.7629 505.509 39.7027C499.116 35.91 494.87 39.488 494.691 39.6431C494.561 39.7411 494.399 39.7864 494.237 39.7698C494.075 39.7532 493.926 39.676 493.818 39.5536C493.711 39.4313 493.654 39.2729 493.659 39.1103C493.664 38.9477 493.73 38.7929 493.844 38.677C493.904 38.677 498.949 34.3118 506.165 38.6054C506.237 38.6485 506.301 38.7055 506.352 38.7731C506.403 38.8408 506.44 38.9178 506.461 38.9998C506.482 39.0817 506.486 39.167 506.475 39.2508C506.463 39.3346 506.434 39.4152 506.391 39.488C506.333 39.5816 506.252 39.6591 506.156 39.7133C506.061 39.7675 505.953 39.7967 505.842 39.7981Z" fill="#00204A"/>
<path d="M501.442 45.5112C501.444 45.8306 501.351 46.1435 501.175 46.4102C500.999 46.6768 500.748 46.885 500.453 47.0083C500.158 47.1317 499.834 47.1646 499.52 47.1028C499.207 47.0411 498.919 46.8875 498.693 46.6616C498.467 46.4357 498.313 46.1477 498.252 45.8342C498.19 45.5208 498.223 45.1961 498.346 44.9014C498.47 44.6067 498.678 44.3553 498.944 44.1793C499.211 44.0033 499.524 43.9106 499.843 43.9129C500.267 43.9129 500.674 44.0813 500.973 44.3811C501.273 44.6808 501.442 45.0873 501.442 45.5112Z" fill="#00204A"/>
<path d="M520.953 494.38H546" stroke="#00204A" stroke-width="2" stroke-linecap="round" stroke-linejoin="round"/>
<path d="M48.6476 494.38H512.604" stroke="#00204A" stroke-width="2" stroke-linecap="round" stroke-linejoin="round"/>
<path d="M16.0277 494.38H33.1428" stroke="#00204A" stroke-width="2" stroke-linecap="round" stroke-linejoin="round"/>
<path d="M187.811 333.761H169.587V492.15H187.811V333.761Z" fill="#00204A" stroke="#00204A" stroke-width="2" stroke-linecap="round" stroke-linejoin="round"/>
<path d="M43.3048 391.117V402.257H115.94V391.117H43.3048Z" fill="#00204A" stroke="#00204A" stroke-width="2" stroke-linecap="round" stroke-linejoin="round"/>
<path d="M50.771 352.665H39.6313V397.236H50.771V352.665Z" fill="#00204A" stroke="#00204A" stroke-width="2" stroke-linecap="round" stroke-linejoin="round"/>
<path d="M55.4106 397.427C55.4106 398.767 55.1464 400.094 54.6332 401.332C54.12 402.57 53.3678 403.694 52.4196 404.642C51.4714 405.589 50.3458 406.34 49.1072 406.851C47.8686 407.363 46.5413 407.626 45.2012 407.624C44.8672 407.624 44.5333 407.624 44.2112 407.624C42.3536 407.44 40.5819 406.751 39.0887 405.631C37.5955 404.51 36.4381 403.002 35.7422 401.27C35.0463 399.538 34.8387 397.648 35.1418 395.806C35.445 393.964 36.2473 392.241 37.4616 390.823C38.6759 389.405 40.2556 388.347 42.0291 387.765C43.8025 387.182 45.7017 387.097 47.5203 387.518C49.3388 387.94 51.007 388.852 52.3434 390.155C53.6799 391.458 54.6335 393.103 55.1005 394.91C55.3042 395.733 55.4083 396.578 55.4106 397.427Z" fill="white" stroke="#00204A" stroke-width="2" stroke-linecap="round" stroke-linejoin="round"/>
<path d="M56.162 359.535C56.1557 362.24 55.0776 364.831 53.164 366.743C51.2504 368.654 48.6572 369.729 45.9526 369.732C45.6186 369.732 45.2846 369.732 44.9507 369.732C43.0921 369.554 41.318 368.87 39.8213 367.754C38.3246 366.637 37.1627 365.132 36.4619 363.402C35.7611 361.671 35.5482 359.781 35.8465 357.938C36.1448 356.095 36.9429 354.369 38.1538 352.948C39.3647 351.527 40.9421 350.465 42.7145 349.878C44.4868 349.291 46.3863 349.201 48.2061 349.618C50.026 350.035 51.6966 350.944 53.0363 352.244C54.3759 353.545 55.3333 355.188 55.8042 356.994C56.0333 357.822 56.1536 358.676 56.162 359.535Z" fill="white" stroke="#00204A" stroke-width="2" stroke-linecap="round" stroke-linejoin="round"/>
<path d="M74.4423 331.864L59.5933 339.859L62.6693 345.572L77.5183 337.577L74.4423 331.864Z" fill="#00204A" stroke="#00204A" stroke-width="2" stroke-linecap="round" stroke-linejoin="round"/>
<path d="M79.98 338.198L72.6688 342.133L67.9935 333.463L75.3166 329.515C75.8912 329.2 76.523 329.003 77.1748 328.936C77.8266 328.868 78.4853 328.932 79.1121 329.123C79.7389 329.315 80.3211 329.629 80.8245 330.049C81.3279 330.468 81.7423 330.984 82.0434 331.566C82.6419 332.721 82.7609 334.064 82.3745 335.306C81.9882 336.547 81.1278 337.587 79.98 338.198Z" fill="white" stroke="#00204A" stroke-width="2" stroke-linecap="round" stroke-linejoin="round"/>
<path d="M47.9324 301.427L47.4076 331.674L40.9313 331.566L41.4442 301.32L47.9324 301.427Z" fill="#00204A" stroke="#00204A" stroke-width="2" stroke-linecap="round" stroke-linejoin="round"/>
<path d="M49.6857 299.602L49.5545 307.951L39.7029 307.712L39.8341 299.364C39.8449 298.717 39.9832 298.078 40.2408 297.485C40.4984 296.891 40.8705 296.354 41.3356 295.905C41.8008 295.455 42.35 295.101 42.9519 294.864C43.5538 294.627 44.1965 294.51 44.8434 294.521C45.4969 294.53 46.1421 294.67 46.7411 294.931C47.3401 295.193 47.8809 295.571 48.3318 296.044C48.7827 296.518 49.1348 297.076 49.3672 297.687C49.5997 298.298 49.708 298.949 49.6857 299.602Z" fill="white" stroke="#00204A" stroke-width="2" stroke-linecap="round" stroke-linejoin="round"/>
<path d="M72.1679 312.4L57.9391 339.092L52.2142 336.051L66.4311 309.358L72.1679 312.4Z" fill="#00204A" stroke="#00204A" stroke-width="2" stroke-linecap="round" stroke-linejoin="round"/>
<path d="M74.5533 311.577L70.6532 318.912L61.9585 314.296L65.8467 306.949C66.4618 305.799 67.5069 304.939 68.7538 304.557C70.0007 304.175 71.3481 304.302 72.5019 304.91C73.657 305.523 74.5217 306.569 74.9063 307.819C75.2909 309.069 75.164 310.42 74.5533 311.577Z" fill="white" stroke="#00204A" stroke-width="2" stroke-linecap="round" stroke-linejoin="round"/>
<path d="M24.9373 312.28L39.0349 339.044L33.2981 342.074L19.2004 315.31L24.9373 312.28Z" fill="#00204A" stroke="#00204A" stroke-width="2" stroke-linecap="round" stroke-linejoin="round"/>
<path d="M38.1643 331.685C37.9552 330.448 37.3836 329.299 36.5218 328.386C35.66 327.474 34.5468 326.837 33.323 326.557C32.0991 326.277 30.8197 326.366 29.6467 326.814C28.4737 327.261 27.4597 328.046 26.7332 329.07C26.0066 330.094 25.6001 331.31 25.5651 332.565C25.5302 333.82 25.8682 335.057 26.5366 336.12C27.205 337.183 28.1736 338.023 29.3199 338.535C30.4662 339.048 31.7386 339.208 32.9761 338.997C34.6329 338.714 36.1097 337.785 37.0824 336.414C38.0551 335.043 38.4442 333.343 38.1643 331.685Z" fill="white" stroke="#00204A" stroke-width="2" stroke-linecap="round" stroke-linejoin="round"/>
<path d="M44.3664 332.52C47.8707 332.52 50.7115 329.68 50.7115 326.175C50.7115 322.671 47.8707 319.83 44.3664 319.83C40.862 319.83 38.0212 322.671 38.0212 326.175C38.0212 329.68 40.862 332.52 44.3664 332.52Z" fill="white" stroke="#00204A" stroke-width="2" stroke-linecap="round" stroke-linejoin="round"/>
<path d="M65.0715 329.837C65.2624 328.596 65.0811 327.327 64.5503 326.189C64.0196 325.051 63.1633 324.097 62.0899 323.446C61.0165 322.795 59.7741 322.477 58.52 322.533C57.2659 322.588 56.0565 323.014 55.0446 323.757C54.0328 324.5 53.2641 325.527 52.8358 326.707C52.4075 327.887 52.3389 329.167 52.6385 330.386C52.9382 331.605 53.5927 332.708 54.5193 333.555C55.4458 334.402 56.6028 334.955 57.8438 335.144C58.667 335.271 59.5071 335.235 60.3162 335.037C61.1253 334.839 61.8873 334.483 62.5587 333.99C63.2301 333.497 63.7976 332.876 64.2288 332.164C64.66 331.451 64.9463 330.66 65.0715 329.837Z" fill="white" stroke="#00204A" stroke-width="2" stroke-linecap="round" stroke-linejoin="round"/>
<path d="M25.5933 309.835L29.4815 317.182L20.7748 321.798L16.8867 314.439C16.583 313.868 16.3951 313.242 16.3339 312.598C16.2726 311.954 16.3392 311.304 16.5299 310.685C16.7205 310.067 17.0313 309.492 17.4446 308.994C17.8579 308.496 18.3654 308.085 18.9381 307.784C20.0934 307.177 21.4419 307.052 22.689 307.436C23.936 307.821 24.9802 308.683 25.5933 309.835Z" fill="white" stroke="#00204A" stroke-width="2" stroke-linecap="round" stroke-linejoin="round"/>
<path d="M63.8549 343.934C63.8549 348.679 61.97 353.23 58.6149 356.585C55.2598 359.94 50.7094 361.825 45.9645 361.825C45.3682 361.825 44.7718 361.825 44.2113 361.753C40.9569 361.431 37.8532 360.222 35.2375 358.259C32.6218 356.296 30.5943 353.654 29.3752 350.619C28.1561 347.584 27.7922 344.274 28.3229 341.047C28.8537 337.82 30.2588 334.8 32.3856 332.316C34.5123 329.831 37.2794 327.977 40.386 326.955C43.4926 325.934 46.8198 325.783 50.0061 326.52C53.1924 327.256 56.1158 328.852 58.4586 331.134C60.8014 333.416 62.4739 336.296 63.2943 339.462C63.6642 340.924 63.8525 342.426 63.8549 343.934Z" fill="white" stroke="#00204A" stroke-width="2" stroke-linecap="round" stroke-linejoin="round"/>
<path d="M63.8548 343.934C63.8548 348.679 61.97 353.23 58.6149 356.585C55.2598 359.94 50.7093 361.825 45.9645 361.825C45.3681 361.825 44.7718 361.825 44.2112 361.753C43.5258 359.106 43.4562 356.337 44.0079 353.659C44.5596 350.981 45.7178 348.465 47.3936 346.304C49.0694 344.144 51.2181 342.396 53.6747 341.195C56.1314 339.995 58.8305 339.373 61.5649 339.378C62.1493 339.378 62.7576 339.378 63.3181 339.462C63.68 340.925 63.8602 342.427 63.8548 343.934Z" fill="white" stroke="#00204A" stroke-width="2" stroke-linecap="round" stroke-linejoin="round"/>
<path d="M153.94 397.749C156.977 384.767 148.916 371.781 135.935 368.744C122.953 365.706 109.967 373.767 106.929 386.749C103.892 399.73 111.953 412.716 124.935 415.754C137.916 418.792 150.902 410.731 153.94 397.749Z" fill="white" stroke="#00204A" stroke-width="2" stroke-linecap="round" stroke-linejoin="round"/>
<path d="M134.92 403.044C140.884 400.556 143.702 393.705 141.214 387.741C138.727 381.777 131.876 378.959 125.912 381.446C119.948 383.934 117.13 390.785 119.617 396.749C122.105 402.713 128.956 405.531 134.92 403.044Z" fill="#00204A" stroke="#00204A" stroke-width="2" stroke-linecap="round" stroke-linejoin="round"/>
<path d="M126.28 494.38H233.384L234.923 487.129C235.54 484.232 234.985 481.209 233.381 478.72C231.776 476.23 229.252 474.477 226.359 473.842C211.176 470.431 178.306 469.203 178.306 469.203C170.386 469.453 148.345 470.395 133.162 473.854C130.289 474.51 127.79 476.271 126.206 478.755C124.621 481.239 124.078 484.247 124.694 487.129L126.28 494.38Z" fill="white" stroke="#00204A" stroke-width="2" stroke-linecap="round" stroke-linejoin="round"/>
<path d="M205.606 470.968C191.89 469.704 178.341 469.203 178.341 469.203C173.356 469.358 162.765 469.799 151.816 470.968C155.012 481.881 165.842 489.92 178.711 489.92C191.58 489.92 202.41 481.845 205.606 470.968Z" fill="#A9CEFF" stroke="#00204A" stroke-width="2" stroke-linecap="round" stroke-linejoin="round"/>
<path d="M290.577 443.239L297.24 434.311L239.025 390.872L232.363 399.8L290.577 443.239Z" fill="#00204A" stroke="#00204A" stroke-width="2" stroke-linecap="round" stroke-linejoin="round"/>
<path d="M261.608 469.596L270.536 476.258L297.191 440.536L288.263 433.874L261.608 469.596Z" fill="#00204A" stroke="#00204A" stroke-width="2" stroke-linecap="round" stroke-linejoin="round"/>
<path d="M284.646 430.941C285.449 429.865 286.456 428.957 287.61 428.27C288.764 427.583 290.043 427.13 291.372 426.937C292.701 426.745 294.055 426.816 295.357 427.147C296.658 427.478 297.882 428.062 298.958 428.866L299.733 429.498C301.113 430.756 302.121 432.369 302.647 434.16C303.174 435.951 303.2 437.852 302.722 439.657C302.243 441.461 301.279 443.1 299.934 444.395C298.59 445.69 296.915 446.592 295.094 447.001C293.272 447.411 291.374 447.314 289.604 446.72C287.834 446.125 286.261 445.057 285.055 443.631C283.85 442.205 283.059 440.476 282.768 438.632C282.477 436.788 282.698 434.899 283.405 433.172C283.725 432.38 284.142 431.631 284.646 430.941Z" fill="white" stroke="#00204A" stroke-width="2" stroke-linecap="round" stroke-linejoin="round"/>
<path d="M261.353 459.482C262.865 457.237 265.207 455.684 267.864 455.165C270.521 454.646 273.276 455.204 275.522 456.715C275.796 456.894 276.059 457.097 276.321 457.3C277.761 458.488 278.847 460.049 279.462 461.812C280.077 463.575 280.196 465.473 279.808 467.299C279.419 469.125 278.537 470.81 277.257 472.17C275.978 473.53 274.35 474.512 272.551 475.011C270.752 475.511 268.85 475.507 267.053 475C265.256 474.494 263.632 473.504 262.358 472.139C261.084 470.774 260.209 469.086 259.828 467.258C259.446 465.43 259.574 463.533 260.196 461.772C260.485 460.964 260.873 460.195 261.353 459.482Z" fill="white" stroke="#00204A" stroke-width="2" stroke-linecap="round" stroke-linejoin="round"/>
<path d="M230.696 472.26L247.479 473.908L248.114 467.451L231.33 465.803L230.696 472.26Z" fill="#00204A" stroke="#00204A" stroke-width="2" stroke-linecap="round" stroke-linejoin="round"/>
<path d="M229.675 463.955L237.952 464.766L236.986 474.57L228.709 473.759C227.409 473.632 226.212 472.994 225.382 471.986C224.553 470.977 224.157 469.68 224.284 468.38C224.413 467.079 225.054 465.882 226.064 465.053C227.075 464.223 228.373 463.828 229.675 463.955Z" fill="white" stroke="#00204A" stroke-width="2" stroke-linecap="round" stroke-linejoin="round"/>
<path d="M246.253 468.129C247.564 466.176 249.247 464.5 251.207 463.198C253.166 461.896 255.363 460.993 257.672 460.541C259.98 460.089 262.356 460.097 264.661 460.564C266.967 461.031 269.158 461.948 271.109 463.263C271.598 463.597 272.063 463.943 272.516 464.313C275.038 466.396 276.94 469.132 278.015 472.221C279.091 475.31 279.299 478.635 278.617 481.835C277.934 485.034 276.388 487.985 274.146 490.367C271.904 492.748 269.051 494.47 265.899 495.344C262.747 496.217 259.415 496.21 256.267 495.323C253.118 494.436 250.273 492.702 248.041 490.311C245.809 487.919 244.275 484.962 243.607 481.76C242.938 478.557 243.161 475.233 244.249 472.149C244.743 470.729 245.417 469.378 246.253 468.129Z" fill="white" stroke="#00204A" stroke-width="2" stroke-linecap="round" stroke-linejoin="round"/>
<path d="M226.979 486.711L249.163 470.121L252.729 474.88L230.545 491.458L226.979 486.711Z" fill="#00204A" stroke="#00204A" stroke-width="2" stroke-linecap="round" stroke-linejoin="round"/>
<path d="M224.677 486.461L230.772 481.845L236.187 489.001L230.092 493.569C229.135 494.286 227.933 494.592 226.75 494.422C225.567 494.252 224.499 493.62 223.783 492.663C223.096 491.716 222.805 490.538 222.972 489.38C223.139 488.222 223.751 487.175 224.677 486.461Z" fill="white" stroke="#00204A" stroke-width="2" stroke-linecap="round" stroke-linejoin="round"/>
<path d="M255.628 475.238C255.91 474.013 255.821 472.732 255.374 471.557C254.927 470.383 254.141 469.367 253.116 468.64C252.091 467.913 250.873 467.506 249.616 467.472C248.36 467.438 247.122 467.778 246.059 468.448C244.996 469.119 244.156 470.09 243.645 471.239C243.135 472.388 242.978 473.662 243.193 474.901C243.408 476.139 243.986 477.285 244.853 478.195C245.721 479.104 246.839 479.735 248.066 480.008C249.701 480.372 251.413 480.075 252.83 479.181C254.246 478.287 255.252 476.87 255.628 475.238Z" fill="white" stroke="#00204A" stroke-width="2" stroke-linecap="round" stroke-linejoin="round"/>
<path d="M267.388 503.385L270.68 480.629L275.558 481.32L272.278 504.077L267.388 503.385Z" fill="#00204A" stroke="#00204A" stroke-width="2" stroke-linecap="round" stroke-linejoin="round"/>
<path d="M265.897 504.59L266.791 498.328L274.198 499.39L273.303 505.639C273.235 506.127 273.071 506.595 272.821 507.019C272.571 507.443 272.239 507.813 271.846 508.109C271.453 508.405 271.005 508.62 270.529 508.743C270.053 508.865 269.557 508.893 269.069 508.824C268.088 508.682 267.202 508.157 266.608 507.363C266.013 506.569 265.757 505.572 265.897 504.59Z" fill="white" stroke="#00204A" stroke-width="2" stroke-linecap="round" stroke-linejoin="round"/>
<path d="M277.466 479.83C276.904 478.955 276.096 478.266 275.143 477.85C274.19 477.434 273.136 477.31 272.112 477.493C271.089 477.676 270.143 478.159 269.393 478.879C268.644 479.6 268.125 480.527 267.902 481.542C267.679 482.557 267.762 483.616 268.14 484.585C268.519 485.553 269.175 486.387 270.028 486.983C270.88 487.578 271.89 487.907 272.929 487.929C273.969 487.951 274.991 487.664 275.868 487.105C277.043 486.351 277.872 485.162 278.172 483.798C278.471 482.434 278.218 481.007 277.466 479.83Z" fill="white" stroke="#00204A" stroke-width="2" stroke-linecap="round" stroke-linejoin="round"/>
<path d="M245.43 500.356L260.219 476.931L265.241 480.08L250.463 503.516L245.43 500.356Z" fill="#00204A" stroke="#00204A" stroke-width="2" stroke-linecap="round" stroke-linejoin="round"/>
<path d="M243.2 500.928L247.243 494.488L254.888 499.259L250.833 505.711C250.195 506.72 249.183 507.436 248.019 507.702C246.855 507.968 245.632 507.763 244.619 507.13C243.611 506.494 242.895 505.485 242.629 504.322C242.363 503.16 242.568 501.94 243.2 500.928Z" fill="white" stroke="#00204A" stroke-width="2" stroke-linecap="round" stroke-linejoin="round"/>
<path d="M268.103 479.388C267.926 478.146 267.385 476.985 266.547 476.051C265.709 475.117 264.612 474.454 263.397 474.144C262.181 473.834 260.901 473.893 259.718 474.312C258.536 474.731 257.504 475.492 256.755 476.498C256.005 477.504 255.571 478.71 255.508 479.963C255.445 481.216 255.756 482.459 256.4 483.535C257.045 484.612 257.995 485.472 259.129 486.008C260.263 486.544 261.531 486.73 262.772 486.544C264.427 486.3 265.917 485.409 266.916 484.068C267.915 482.726 268.342 481.044 268.103 479.388Z" fill="white" stroke="#00204A" stroke-width="2" stroke-linecap="round" stroke-linejoin="round"/>
<path d="M240.705 412.966C251.915 405.75 255.153 390.812 247.937 379.602C240.721 368.391 225.783 365.154 214.573 372.37C203.362 379.586 200.124 394.524 207.341 405.734C214.557 416.945 229.495 420.183 240.705 412.966Z" fill="white" stroke="#00204A" stroke-width="2" stroke-linecap="round" stroke-linejoin="round"/>
<path d="M238.284 397.555C240.978 391.681 238.4 384.736 232.527 382.042C226.653 379.348 219.708 381.925 217.014 387.799C214.32 393.672 216.897 400.618 222.771 403.312C228.644 406.006 235.589 403.428 238.284 397.555Z" fill="#00204A" stroke="#00204A" stroke-width="2" stroke-linecap="round" stroke-linejoin="round"/>
<path d="M178.699 344.829C200.114 344.829 217.473 327.469 217.473 306.054C217.473 284.64 200.114 267.28 178.699 267.28C157.285 267.28 139.925 284.64 139.925 306.054C139.925 327.469 157.285 344.829 178.699 344.829Z" fill="#A9CEFF" stroke="#00204A" stroke-width="2" stroke-linecap="round" stroke-linejoin="round"/>
<path d="M234.135 331.876C242.463 321.436 247.674 308.858 249.17 295.588C250.666 282.318 248.386 268.895 242.593 256.863C236.799 244.831 227.727 234.678 216.42 227.573C205.112 220.468 192.029 216.699 178.675 216.699C165.321 216.699 152.238 220.468 140.931 227.573C129.624 234.678 120.552 244.831 114.758 256.863C108.964 268.895 106.684 282.318 108.181 295.588C109.677 308.858 114.888 321.436 123.215 331.876H234.135Z" fill="white" stroke="#00204A" stroke-width="2" stroke-linecap="round" stroke-linejoin="round"/>
<path d="M222.089 260.863H133.52C128.132 260.863 123.764 265.231 123.764 270.62V302.011C123.764 307.399 128.132 311.767 133.52 311.767H222.089C227.477 311.767 231.845 307.399 231.845 302.011V270.62C231.845 265.231 227.477 260.863 222.089 260.863Z" fill="#A9CEFF" stroke="#00204A" stroke-width="2" stroke-linecap="round" stroke-linejoin="round"/>
<path d="M135.452 284.252C136.623 280.972 138.758 278.123 141.577 276.078C144.395 274.032 147.766 272.886 151.247 272.789C154.729 272.693 158.158 273.65 161.086 275.536C164.013 277.422 166.303 280.148 167.655 283.358" stroke="#00204A" stroke-width="2" stroke-linecap="round" stroke-linejoin="round"/>
<path d="M188.873 284.252C190.044 280.972 192.179 278.123 194.998 276.078C197.816 274.032 201.187 272.886 204.668 272.789C208.149 272.693 211.579 273.65 214.506 275.536C217.434 277.422 219.724 280.148 221.075 283.358" stroke="#00204A" stroke-width="2" stroke-linecap="round" stroke-linejoin="round"/>
<path d="M169.349 296.048C169.648 298.413 170.8 300.588 172.588 302.164C174.377 303.74 176.679 304.61 179.063 304.61C181.447 304.61 183.749 303.74 185.538 302.164C187.326 300.588 188.478 298.413 188.777 296.048H169.349Z" fill="white" stroke="#00204A" stroke-width="2" stroke-linecap="round" stroke-linejoin="round"/>
<path d="M270.489 300.079C268.521 300.079 266.634 299.298 265.243 297.906C263.852 296.515 263.07 294.628 263.07 292.661V275.784C263.069 274.809 263.259 273.843 263.631 272.941C264.003 272.04 264.55 271.221 265.239 270.531C265.928 269.84 266.746 269.293 267.647 268.919C268.548 268.546 269.513 268.354 270.489 268.354C271.464 268.352 272.43 268.543 273.331 268.915C274.233 269.287 275.052 269.833 275.742 270.522C276.432 271.211 276.98 272.03 277.353 272.93C277.727 273.831 277.919 274.797 277.919 275.772V292.649C277.921 293.625 277.73 294.592 277.357 295.494C276.984 296.396 276.437 297.216 275.746 297.906C275.056 298.597 274.236 299.144 273.334 299.517C272.432 299.89 271.465 300.081 270.489 300.079Z" fill="#00204A" stroke="#00204A" stroke-width="2" stroke-linecap="round" stroke-linejoin="round"/>
<path d="M84.8821 300.079C83.9069 300.081 82.9409 299.89 82.0395 299.518C81.138 299.146 80.3188 298.6 79.6287 297.911C78.9385 297.222 78.391 296.403 78.0175 295.502C77.6439 294.602 77.4516 293.636 77.4516 292.661V275.784C77.45 274.808 77.6412 273.841 78.014 272.939C78.3869 272.036 78.9341 271.217 79.6244 270.526C80.3147 269.836 81.1345 269.289 82.0367 268.916C82.9389 268.543 83.9058 268.352 84.8821 268.354C85.8563 268.354 86.821 268.545 87.721 268.918C88.6211 269.291 89.4389 269.838 90.1278 270.526C90.8166 271.215 91.3631 272.033 91.7359 272.933C92.1087 273.833 92.3006 274.798 92.3006 275.772V292.649C92.3022 293.624 92.1114 294.59 91.7393 295.491C91.3672 296.393 90.821 297.212 90.132 297.902C89.443 298.592 88.6246 299.14 87.7238 299.513C86.8229 299.887 85.8573 300.079 84.8821 300.079Z" fill="#00204A" stroke="#00204A" stroke-width="2" stroke-linecap="round" stroke-linejoin="round"/>
<path d="M108.664 223.926C102.102 233.622 98.6037 245.065 98.6219 256.772V269.033" stroke="#00204A" stroke-width="2" stroke-linecap="round" stroke-linejoin="round"/>
<path d="M249.497 223.973C244.127 215.973 236.871 209.417 228.367 204.884C219.864 200.352 210.376 197.982 200.74 197.985H157.386C147.763 197.978 138.287 200.337 129.791 204.855C121.295 209.372 114.04 215.909 108.664 223.89" stroke="#00204A" stroke-width="2" stroke-linecap="round" stroke-linejoin="round"/>
<path d="M259.492 269.033V256.773C259.51 245.087 256.029 233.663 249.497 223.974" stroke="#00204A" stroke-width="2" stroke-linecap="round" stroke-linejoin="round"/>
<path d="M104.538 255.83H94.5905C88.8334 255.83 84.1664 260.497 84.1664 266.254V300.711C84.1664 306.468 88.8334 311.135 94.5905 311.135H104.538C110.295 311.135 114.962 306.468 114.962 300.711V266.254C114.962 260.497 110.295 255.83 104.538 255.83Z" fill="white" stroke="#00204A" stroke-width="2" stroke-linecap="round" stroke-linejoin="round"/>
<path d="M101.138 255.83H98.0017V311.135H101.138V255.83Z" fill="#A9CEFF" stroke="#00204A" stroke-width="2" stroke-linecap="round" stroke-linejoin="round"/>
<path d="M261.639 255.83H251.692C245.935 255.83 241.268 260.497 241.268 266.254V300.711C241.268 306.468 245.935 311.135 251.692 311.135H261.639C267.396 311.135 272.063 306.468 272.063 300.711V266.254C272.063 260.497 267.396 255.83 261.639 255.83Z" fill="white" stroke="#00204A" stroke-width="2" stroke-linecap="round" stroke-linejoin="round"/>
<path d="M258.24 255.83H255.103V311.135H258.24V255.83Z" fill="#A9CEFF" stroke="#00204A" stroke-width="2" stroke-linecap="round" stroke-linejoin="round"/>
<path d="M178.95 250.809C184.383 250.81 189.73 249.451 194.503 246.855C199.276 244.259 203.323 240.51 206.274 235.948L213.001 225.536C202.342 219.649 190.346 216.606 178.17 216.7C165.993 216.794 154.046 220.022 143.479 226.073L153.605 238.644C156.651 242.437 160.509 245.5 164.896 247.605C169.282 249.71 174.084 250.805 178.95 250.809Z" fill="#A9CEFF" stroke="#00204A" stroke-width="2" stroke-linecap="round" stroke-linejoin="round"/>
<path d="M180.631 316.92C180.631 316.684 180.561 316.453 180.43 316.257C180.299 316.061 180.113 315.908 179.895 315.818C179.677 315.728 179.437 315.704 179.206 315.75C178.975 315.796 178.762 315.91 178.595 316.076C178.429 316.243 178.315 316.456 178.269 316.687C178.223 316.919 178.246 317.158 178.337 317.376C178.427 317.594 178.58 317.781 178.776 317.912C178.972 318.043 179.203 318.113 179.439 318.113C179.755 318.113 180.058 317.987 180.282 317.763C180.506 317.54 180.631 317.236 180.631 316.92Z" fill="#00204A"/>
<path d="M180.631 320.927C180.631 320.691 180.561 320.461 180.43 320.265C180.299 320.069 180.113 319.916 179.895 319.825C179.677 319.735 179.437 319.712 179.206 319.758C178.975 319.804 178.762 319.917 178.595 320.084C178.429 320.251 178.315 320.463 178.269 320.695C178.223 320.926 178.246 321.166 178.337 321.384C178.427 321.602 178.58 321.788 178.776 321.919C178.972 322.05 179.203 322.12 179.439 322.12C179.755 322.12 180.058 321.994 180.282 321.771C180.506 321.547 180.631 321.244 180.631 320.927Z" fill="#00204A"/>
<path d="M176.087 320.307C176.305 320.167 176.471 319.959 176.56 319.715C176.65 319.472 176.657 319.206 176.581 318.958C176.506 318.71 176.352 318.493 176.142 318.341C175.932 318.188 175.679 318.108 175.419 318.113C175.202 318.253 175.035 318.461 174.946 318.704C174.857 318.948 174.85 319.214 174.925 319.462C175.001 319.71 175.155 319.927 175.365 320.079C175.574 320.232 175.828 320.312 176.087 320.307Z" fill="#00204A"/>
<path d="M183.255 320.307C183.44 320.304 183.621 320.258 183.785 320.173C183.948 320.087 184.09 319.965 184.199 319.816C184.307 319.667 184.38 319.495 184.41 319.313C184.441 319.131 184.429 318.944 184.375 318.767C184.321 318.591 184.227 318.429 184.101 318.295C183.974 318.161 183.817 318.058 183.644 317.995C183.471 317.931 183.285 317.909 183.102 317.929C182.918 317.95 182.742 318.012 182.587 318.113C182.403 318.116 182.221 318.162 182.058 318.247C181.894 318.332 181.752 318.454 181.644 318.604C181.535 318.753 181.463 318.925 181.432 319.107C181.401 319.289 181.413 319.476 181.467 319.652C181.521 319.829 181.615 319.991 181.742 320.125C181.869 320.259 182.025 320.362 182.198 320.425C182.371 320.488 182.557 320.511 182.74 320.49C182.924 320.47 183.1 320.407 183.255 320.307Z" fill="#00204A"/>
<path d="M226.359 361.67C211.176 358.247 178.305 357.018 178.305 357.018C170.386 357.269 148.345 358.211 133.162 361.682C130.288 362.335 127.787 364.095 126.201 366.58C124.616 369.065 124.075 372.074 124.694 374.956L138.756 440.745C139.447 443.935 141.207 446.793 143.745 448.845C146.283 450.897 149.446 452.02 152.71 452.028H206.918C210.182 452.02 213.345 450.897 215.883 448.845C218.421 446.793 220.182 443.935 220.873 440.745L234.922 374.956C235.539 372.06 234.985 369.036 233.381 366.547C231.776 364.058 229.252 362.304 226.359 361.67Z" fill="white" stroke="#00204A" stroke-width="2" stroke-linecap="round" stroke-linejoin="round"/>
<path d="M219.441 360.405C202.97 357.948 178.341 357.018 178.341 357.018C166.282 357.364 154.25 358.359 142.298 360L158.232 452.028H201.539L219.441 360.405Z" fill="#A9CEFF" stroke="#00204A" stroke-width="2" stroke-linecap="round" stroke-linejoin="round"/>
<path d="M192.558 377.02H166.176C160.788 377.02 156.42 381.388 156.42 386.776V399.657C156.42 405.045 160.788 409.413 166.176 409.413H192.558C197.946 409.413 202.314 405.045 202.314 399.657V386.776C202.314 381.388 197.946 377.02 192.558 377.02Z" fill="white" stroke="#00204A" stroke-width="2" stroke-linecap="round" stroke-linejoin="round"/>
<path d="M171.662 390.366H164.232V397.796H171.662V390.366Z" fill="white" stroke="#00204A" stroke-width="2" stroke-linecap="round" stroke-linejoin="round"/>
<path d="M183.076 390.366H175.646V397.796H183.076V390.366Z" fill="white" stroke="#00204A" stroke-width="2" stroke-linecap="round" stroke-linejoin="round"/>
<path d="M194.502 390.366H187.072V397.796H194.502V390.366Z" fill="white" stroke="#00204A" stroke-width="2" stroke-linecap="round" stroke-linejoin="round"/>
<path d="M74.9586 431.227H207.156C208.738 431.227 210.255 431.856 211.373 432.974C212.492 434.092 213.12 435.609 213.12 437.191V511.46H68.9951V437.191C68.9951 435.609 69.6234 434.092 70.7418 432.974C71.8601 431.856 73.377 431.227 74.9586 431.227Z" fill="white" stroke="#00204A" stroke-width="2" stroke-linecap="round" stroke-linejoin="round"/>
<path d="M213.12 457.92C195.015 462.512 176.433 474.2 141.809 490.659C108.414 506.546 81.0774 506.272 68.9954 505.043V511.46H213.12V457.92Z" fill="#00204A" stroke="#00204A" stroke-width="2" stroke-linecap="round" stroke-linejoin="round"/>
<path d="M213.12 507.011H68.9954V511.472H213.12V507.011Z" fill="white" stroke="#00204A" stroke-width="2" stroke-linecap="round" stroke-linejoin="round"/>
<path d="M148.488 471.35C148.488 472.819 148.053 474.256 147.236 475.478C146.42 476.7 145.259 477.652 143.901 478.214C142.544 478.777 141.05 478.924 139.608 478.637C138.167 478.351 136.843 477.643 135.804 476.604C134.765 475.565 134.057 474.241 133.77 472.799C133.484 471.358 133.631 469.864 134.193 468.506C134.755 467.148 135.708 465.988 136.93 465.171C138.152 464.355 139.588 463.919 141.058 463.919C143.029 463.919 144.919 464.702 146.312 466.096C147.706 467.489 148.488 469.379 148.488 471.35Z" fill="white" stroke="#00204A" stroke-width="2" stroke-linecap="round" stroke-linejoin="round"/>
</svg>
